<svg xmlns="http://www.w3.org/2000/svg" width="900" height="650" viewBox="0 0 900 650"><rect width="900" height="650" fill="#101a17"/><g font-family="Arial,sans-serif" fill="#e6e9ee"><text x="62" y="66" font-size="18" letter-spacing="3">FLOWLINE</text><text x="62" y="102" font-size="13" fill="#94a7b8">AN IDEA BECOMES A WORKFLOW.</text><path d="M175 322H410V242H635M410 322V432H635" fill="none" stroke="#a0b885" stroke-width="3"/><rect x="65" y="267" width="260" height="110" rx="12" fill="#202c25" stroke="#627866"/><circle cx="89" cy="297" r="5" fill="#c1d7a5"/><text x="107" y="304" font-size="22">Webhook</text><text x="88" y="344" font-size="15" fill="#a4b4a8">An event arrives</text><rect x="300" y="267" width="260" height="110" rx="12" fill="#202c25" stroke="#627866"/><circle cx="324" cy="297" r="5" fill="#c1d7a5"/><text x="342" y="304" font-size="22">Condition</text><text x="323" y="344" font-size="15" fill="#a4b4a8">Choose the next step</text><rect x="570" y="187" width="260" height="110" rx="12" fill="#202c25" stroke="#627866"/><circle cx="594" cy="217" r="5" fill="#c1d7a5"/><text x="612" y="224" font-size="22">Transform</text><text x="593" y="264" font-size="15" fill="#a4b4a8">Shape the data</text><rect x="570" y="377" width="260" height="110" rx="12" fill="#202c25" stroke="#627866"/><circle cx="594" cy="407" r="5" fill="#c1d7a5"/><text x="612" y="414" font-size="22">Action</text><text x="593" y="454" font-size="15" fill="#a4b4a8">Connect a service</text><text x="64" y="562" font-size="16" fill="#a4b4a8">CONNECT → EXECUTE → INSPECT</text></g></svg>